<?xml version="1.0" encoding="UTF-8" standalone="no"?>
<!-- Generator: Adobe Illustrator 16.0.0, SVG Export Plug-In . SVG Version: 6.00 Build 0)  -->

<svg
   xmlns:dc="http://purl.org/dc/elements/1.1/"
   xmlns:cc="http://creativecommons.org/ns#"
   xmlns:rdf="http://www.w3.org/1999/02/22-rdf-syntax-ns#"
   xmlns:svg="http://www.w3.org/2000/svg"
   xmlns="http://www.w3.org/2000/svg"
   xmlns:sodipodi="http://sodipodi.sourceforge.net/DTD/sodipodi-0.dtd"
   xmlns:inkscape="http://www.inkscape.org/namespaces/inkscape"
   version="1.1"
   id="Capa_1"
   x="0px"
   y="0px"
   width="249.19569"
   height="81.199539"
   viewBox="0 0 249.19568 81.19954"
   xml:space="preserve"
   inkscape:version="0.91 r13725"
   sodipodi:docname="mapomat_404.svg"><metadata
     id="metadata3067"><rdf:RDF><cc:Work
         rdf:about=""><dc:format>image/svg+xml</dc:format><dc:type
           rdf:resource="http://purl.org/dc/dcmitype/StillImage" /><dc:title></dc:title></cc:Work></rdf:RDF></metadata><defs
     id="defs3065" /><sodipodi:namedview
     pagecolor="#ffffff"
     bordercolor="#666666"
     borderopacity="1"
     objecttolerance="10"
     gridtolerance="10"
     guidetolerance="10"
     inkscape:pageopacity="0"
     inkscape:pageshadow="2"
     inkscape:window-width="1858"
     inkscape:window-height="1057"
     id="namedview3063"
     showgrid="false"
     inkscape:zoom="1.6776925"
     inkscape:cx="254.21682"
     inkscape:cy="42.315423"
     inkscape:window-x="1974"
     inkscape:window-y="44"
     inkscape:window-maximized="1"
     inkscape:current-layer="Capa_1"
     showguides="true"
     inkscape:guide-bbox="true"
     fit-margin-top="0"
     fit-margin-left="0"
     fit-margin-right="0"
     fit-margin-bottom="0"><sodipodi:guide
       orientation="0,1"
       position="92.199024,19.371852"
       id="guide3053" /><sodipodi:guide
       orientation="1,0"
       position="31.398298,74.287786"
       id="guide3055" /><sodipodi:guide
       orientation="1,0"
       position="0.10531983,97.235975"
       id="guide3057" /><sodipodi:guide
       orientation="1,0"
       position="62.393256,73.393701"
       id="guide3059" /><sodipodi:guide
       orientation="1,0"
       position="-6.4513,35.842121"
       id="guide3061" /></sodipodi:namedview><g
     id="g3028"
     transform="matrix(0.49940829,0,0,0.49940829,0,-0.56682841)"><g
       id="g3030"><path
         id="path3378"
         d="m 109.605,63.449 c -5.729,0 -10.388,-4.652 -10.388,-10.385 0,-5.737 4.658,-10.384 10.388,-10.384 5.739,0 10.384,4.647 10.384,10.384 0,5.733 -4.645,10.385 -10.384,10.385 z m 0,25.966 c -5.729,0 -10.388,-4.648 -10.388,-10.388 0,-5.737 4.658,-10.386 10.388,-10.386 5.739,0 10.384,4.648 10.384,10.386 0,5.736 -4.645,10.388 -10.384,10.388 z M 94.436,104.99 c 0,5.737 -5.055,11.207 -10.799,11.207 l -62.321,0 c -5.724,0 -9.871,-5.47 -9.871,-11.207 l 0,-51.93 c 0,-5.732 4.147,-11.271 9.871,-11.271 l 62.317,0 c 5.743,0 10.803,5.539 10.803,11.271 l 0,51.93 0,0 z m 20.356,-71.784 -38.488,0 c -3.159,0 -4.083,-2.429 -2.056,-4.856 L 84.367,15.984 c 2.025,-2.429 3.846,-4.468 4.061,-4.417 0.127,0.038 0.255,0.004 0.403,0.004 2.872,0 5.194,-2.347 5.194,-5.223 0,-2.861 -2.322,-5.204 -5.194,-5.204 -2.862,0 -5.194,2.324 -5.194,5.186 0,0.308 0.037,0.604 0.101,0.892 0.105,0.488 -1.378,2.828 -3.403,5.255 L 67.488,27.89 c -2.021,2.429 -4.091,4.396 -4.617,4.396 -0.526,0 -2.588,-1.966 -4.613,-4.398 L 45.416,12.482 C 43.39,10.05 41.893,7.706 41.996,7.217 c 0.061,-0.29 0.096,-0.586 0.096,-0.893 0,-2.86 -2.321,-5.189 -5.195,-5.189 -2.86,0 -5.194,2.329 -5.194,5.189 0,2.875 2.333,5.195 5.194,5.195 0.151,0 0.283,-0.027 0.412,-0.061 0.221,-0.051 2.043,1.871 4.069,4.302 l 10.111,12.595 c 2.023,2.429 1.101,4.856 -2.058,4.856 l -38.497,0 C 5.207,33.208 0,36.941 0,42.675 l 0,72.702 c 0,5.744 5.207,9.405 10.934,9.405 l 103.863,0 c 5.738,0 11.12,-3.664 11.12,-9.405 l 0,-72.705 c -0.002,-5.734 -5.381,-9.466 -11.125,-9.466"
         inkscape:connector-curvature="0" /></g></g><g
     id="g3033"
     transform="translate(-68.441205,-39.133621)" /><g
     id="g3035"
     transform="translate(-68.441205,-39.133621)" /><g
     id="g3037"
     transform="translate(-68.441205,-39.133621)" /><g
     id="g3039"
     transform="translate(-68.441205,-39.133621)" /><g
     id="g3041"
     transform="translate(-68.441205,-39.133621)" /><g
     id="g3043"
     transform="translate(-68.441205,-39.133621)" /><g
     id="g3045"
     transform="translate(-68.441205,-39.133621)" /><g
     id="g3047"
     transform="translate(-68.441205,-39.133621)" /><g
     id="g3049"
     transform="translate(-68.441205,-39.133621)" /><g
     id="g3051"
     transform="translate(-68.441205,-39.133621)" /><g
     id="g3053"
     transform="translate(-68.441205,-39.133621)" /><g
     id="g3055"
     transform="translate(-68.441205,-39.133621)" /><g
     id="g3057"
     transform="translate(-68.441205,-39.133621)" /><g
     id="g3059"
     transform="translate(-68.441205,-39.133621)" /><g
     id="g3061"
     transform="translate(-68.441205,-39.133621)" /><path
     inkscape:connector-curvature="0"
     d="m 46.94576,74.553423 -5.55868,0 0,-6.724871 c 2.58318,-1.603293 4.71493,-3.790579 6.16954,-6.368387 l -16.15832,0 0,-0.0071 -16.20132,0 c 1.45819,2.576017 3.58815,4.765093 6.16954,6.364803 l 0,6.728455 -5.55868,0 c -1.83259,0 -3.32123,1.486853 -3.32123,3.321234 0,1.834382 1.48864,3.321235 3.32123,3.321235 l 7.52383,0 c 1.83438,0 3.32124,-1.488644 3.32124,-3.321235 0,-0.08419 -0.007,-0.170181 -0.0125,-0.254377 0.007,-0.08778 0.0125,-0.18093 0.0125,-0.266917 l 0,-7.278411 c 1.49939,0.385148 3.07581,0.601907 4.70239,0.618029 l 0,0.01075 c 1.64271,-0.01433 3.23346,-0.229298 4.7436,-0.61982 l 0,7.27662 c 0,0.09315 0.004,0.182721 0.0143,0.268708 -0.007,0.08419 -0.0143,0.16839 -0.0143,0.256168 0,1.832591 1.48685,3.321235 3.32123,3.321235 l 7.52383,0 c 1.83259,0 3.32124,-1.488644 3.32124,-3.321235 0.002,-1.834381 -1.48327,-3.324817 -3.31944,-3.324817 z"
     id="path7" /><flowRoot
     xml:space="preserve"
     id="flowRoot3018"
     style="font-style:normal;font-variant:normal;font-weight:300;font-stretch:normal;font-size:40px;line-height:125%;font-family:DINPro-Light;-inkscape-font-specification:'DINPro-Light Light';letter-spacing:0px;word-spacing:0px;fill:#000000;fill-opacity:1;stroke:none"
     transform="translate(-68.441205,-3.2166214)"><flowRegion
       id="flowRegion3020"><rect
         id="rect3022"
         width="51.11187"
         height="44.257217"
         x="3.2783124"
         y="19.516283" /></flowRegion><flowPara
       id="flowPara3024">MAP</flowPara></flowRoot><g
     transform="matrix(0.55412286,0,-0.1863125,0.55412286,34.10049,-20.868563)"
     style="font-style:normal;font-weight:normal;font-size:40px;line-height:125%;font-family:sans-serif;letter-spacing:0px;word-spacing:0px;fill:#ff0000;fill-opacity:1;stroke:none;stroke-width:1px;stroke-linecap:butt;stroke-linejoin:miter;stroke-opacity:1"
     id="flowRoot3388-7"><path
       d="m 8.5895143,92.703062 0,19.997168 2.1736047,0 0,5.21665 -2.1736047,0 0,5.38676 -7.6359686,0 0,-5.38676 -9.0724379,0 0,-5.21665 6.5964184,-19.997168 10.1119881,0 z m -7.6359686,19.997168 0,-13.022732 -3.3643624,13.022732 3.3643624,0 z"
       style="font-style:normal;font-variant:normal;font-weight:normal;font-stretch:condensed;font-size:38.7090683px;font-family:Impact;-inkscape-font-specification:'Impact Condensed';fill:#000000"
       id="path3473"
       inkscape:connector-curvature="0" /><path
       d="m 30.382266,103.06076 0,10.20649 q 0,3.47777 -0.378018,5.06545 -0.378018,1.58768 -1.568776,2.96744 -1.190757,1.37977 -2.872939,1.9846 -1.682181,0.60483 -3.761281,0.60483 -2.740632,0 -4.55512,-0.62373 -1.814488,-0.64263 -2.89184,-1.9846 -1.077352,-1.34196 -1.530973,-2.81623 -0.453622,-1.49318 -0.453622,-4.72523 l 0,-10.67902 q 0,-4.214902 0.718234,-6.312903 0.737136,-2.098001 2.89184,-3.364363 2.173605,-1.266361 5.254454,-1.266361 2.513821,0 4.498417,0.888343 1.984595,0.869442 2.967443,2.135803 0.982847,1.266361 1.323064,2.854038 0.359117,1.587677 0.359117,5.065443 z m -7.635968,-2.57052 q 0,-2.43822 -0.245712,-3.043049 -0.226811,-0.62373 -1.096253,-0.62373 -0.850541,0 -1.134055,0.661531 -0.264613,0.642631 -0.264613,3.005248 l 0,14.93172 q 0,2.66503 0.245712,3.21315 0.264613,0.54813 1.115154,0.54813 0.850541,0 1.115154,-0.64263 0.264613,-0.64263 0.264613,-2.89184 l 0,-15.15853 z"
       style="font-style:normal;font-variant:normal;font-weight:normal;font-stretch:condensed;font-size:38.7090683px;font-family:Impact;-inkscape-font-specification:'Impact Condensed';fill:#000000"
       id="path3475"
       inkscape:connector-curvature="0" /><path
       d="m 48.735053,92.703062 0,19.997168 2.173604,0 0,5.21665 -2.173604,0 0,5.38676 -7.635969,0 0,-5.38676 -9.072438,0 0,-5.21665 6.596419,-19.997168 10.111988,0 z m -7.635969,19.997168 0,-13.022732 -3.364362,13.022732 3.364362,0 z"
       style="font-style:normal;font-variant:normal;font-weight:normal;font-stretch:condensed;font-size:38.7090683px;font-family:Impact;-inkscape-font-specification:'Impact Condensed';fill:#000000"
       id="path3477"
       inkscape:connector-curvature="0" /></g><g
     style="font-style:normal;font-weight:normal;font-size:40px;line-height:125%;font-family:sans-serif;letter-spacing:0px;word-spacing:0px;fill:#000000;fill-opacity:1;stroke:none;stroke-width:1px;stroke-linecap:butt;stroke-linejoin:miter;stroke-opacity:1"
     id="text3468"
     transform="translate(12,-4.0915e-7)"><path
       d="m 90.14492,30.504631 0,31.621094 -7.207031,0 -4.277344,-14.375 0,14.375 -6.875,0 0,-31.621094 6.875,0 4.609375,14.238281 0,-14.238281 6.875,0 z"
       style="font-style:normal;font-variant:normal;font-weight:normal;font-stretch:condensed;font-family:Impact;-inkscape-font-specification:'Impact Condensed'"
       id="path3480"
       inkscape:connector-curvature="0" /><path
       d="m 111.04336,45.309319 0,6.347656 q 0,3.496094 -0.35156,5.136719 -0.35157,1.621093 -1.50391,3.046875 -1.15234,1.40625 -2.96875,2.089843 -1.79688,0.664063 -4.14063,0.664063 -2.617183,0 -4.43359,-0.566406 -1.816406,-0.585938 -2.832031,-1.738282 -0.996094,-1.171875 -1.425781,-2.8125 Q 92.95742,55.817131 92.95742,52.51635 l 0,-6.640625 q 0,-3.613281 0.78125,-5.644531 0.78125,-2.03125 2.8125,-3.261719 2.03125,-1.230469 5.19531,-1.230469 2.65625,0 4.55078,0.800781 1.91407,0.78125 2.94922,2.050782 1.03516,1.269531 1.40625,2.617187 0.39063,1.347656 0.39063,4.101563 z m -7.89063,-1.953125 q 0,-1.992188 -0.21484,-2.5 -0.21484,-0.527344 -0.91797,-0.527344 -0.70312,0 -0.9375,0.527344 -0.23437,0.507812 -0.23437,2.5 l 0,11.699218 q 0,1.835938 0.23437,2.402344 0.23438,0.546875 0.91797,0.546875 0.70312,0 0.91797,-0.507812 0.23437,-0.507813 0.23437,-2.1875 l 0,-11.953125 z"
       style="font-style:normal;font-variant:normal;font-weight:normal;font-stretch:condensed;font-family:Impact;-inkscape-font-specification:'Impact Condensed'"
       id="path3482"
       inkscape:connector-curvature="0" /><path
       d="m 121.98086,32.750725 0,4.082031 2.1289,0 0,4.101563 -2.1289,0 0,13.867187 q 0,2.558594 0.2539,2.851563 0.27344,0.292968 2.20704,0.292968 l 0,4.179688 -3.1836,0 q -2.69531,0 -3.84765,-0.214844 -1.15235,-0.234375 -2.03125,-1.035156 -0.87891,-0.820313 -1.09375,-1.855469 -0.21485,-1.054687 -0.21485,-4.921875 l 0,-13.164062 -1.69922,0 0,-4.101563 1.69922,0 0,-4.082031 7.91016,0 z"
       style="font-style:normal;font-variant:normal;font-weight:normal;font-stretch:condensed;font-family:Impact;-inkscape-font-specification:'Impact Condensed'"
       id="path3484"
       inkscape:connector-curvature="0" /><path
       d="m 133.11367,30.504631 13.92578,0 0,6.328125 -5.70312,0 0,5.996094 5.07812,0 0,6.015625 -5.07812,0 0,13.28125 -8.22266,0 0,-31.621094 z"
       style="font-style:normal;font-variant:normal;font-weight:normal;font-stretch:condensed;font-family:Impact;-inkscape-font-specification:'Impact Condensed'"
       id="path3486"
       inkscape:connector-curvature="0" /><path
       d="m 166.66836,45.309319 0,6.347656 q 0,3.496094 -0.35156,5.136719 -0.35157,1.621093 -1.50391,3.046875 -1.15234,1.40625 -2.96875,2.089843 -1.79688,0.664063 -4.14063,0.664063 -2.61718,0 -4.43359,-0.566406 -1.81641,-0.585938 -2.83203,-1.738282 -0.99609,-1.171875 -1.42578,-2.8125 -0.42969,-1.660156 -0.42969,-4.960937 l 0,-6.640625 q 0,-3.613281 0.78125,-5.644531 0.78125,-2.03125 2.8125,-3.261719 2.03125,-1.230469 5.19531,-1.230469 2.65625,0 4.55078,0.800781 1.91407,0.78125 2.94922,2.050782 1.03516,1.269531 1.40625,2.617187 0.39063,1.347656 0.39063,4.101563 z m -7.89063,-1.953125 q 0,-1.992188 -0.21484,-2.5 -0.21484,-0.527344 -0.91797,-0.527344 -0.70312,0 -0.9375,0.527344 -0.23437,0.507812 -0.23437,2.5 l 0,11.699218 q 0,1.835938 0.23437,2.402344 0.23438,0.546875 0.91797,0.546875 0.70312,0 0.91797,-0.507812 0.23437,-0.507813 0.23437,-2.1875 l 0,-11.953125 z"
       style="font-style:normal;font-variant:normal;font-weight:normal;font-stretch:condensed;font-family:Impact;-inkscape-font-specification:'Impact Condensed'"
       id="path3488"
       inkscape:connector-curvature="0" /><path
       d="m 187.35195,36.207756 0,25.917969 -8.02734,0 0.13672,-2.148438 q -0.82032,1.308594 -2.03125,1.972657 -1.19141,0.644531 -2.75391,0.644531 -1.77734,0 -2.94922,-0.625 -1.17187,-0.625 -1.73828,-1.660156 -0.54687,-1.035157 -0.68359,-2.148438 -0.13672,-1.132812 -0.13672,-4.472656 l 0,-17.480469 7.89062,0 0,17.636719 q 0,3.027344 0.17578,3.59375 0.19532,0.566406 1.01563,0.566406 0.87891,0 1.03516,-0.585937 0.17578,-0.585938 0.17578,-3.769532 l 0,-17.441406 7.89062,0 z"
       style="font-style:normal;font-variant:normal;font-weight:normal;font-stretch:condensed;font-family:Impact;-inkscape-font-specification:'Impact Condensed'"
       id="path3490"
       inkscape:connector-curvature="0" /><path
       d="m 198.25039,36.207756 -0.13672,2.382813 q 0.85938,-1.425782 2.08984,-2.128907 1.25,-0.722656 2.8711,-0.722656 2.03125,0 3.32031,0.957031 1.28906,0.957032 1.66016,2.421875 0.37109,1.445313 0.37109,4.84375 l 0,18.164063 -7.89062,0 0,-17.949219 q 0,-2.675781 -0.17579,-3.261719 -0.17578,-0.585937 -0.97656,-0.585937 -0.83984,0 -1.05469,0.683594 -0.21484,0.664062 -0.21484,3.59375 l 0,17.519531 -7.89062,0 0,-25.917969 8.02734,0 z"
       style="font-style:normal;font-variant:normal;font-weight:normal;font-stretch:condensed;font-family:Impact;-inkscape-font-specification:'Impact Condensed'"
       id="path3492"
       inkscape:connector-curvature="0" /><path
       d="m 229.10976,30.504631 0,31.621094 -7.89062,0 0,-1.875 q -1.13281,1.171875 -2.38281,1.757812 -1.25,0.585938 -2.61719,0.585938 -1.83594,0 -3.18359,-0.957031 -1.34766,-0.976563 -1.73829,-2.246094 -0.37109,-1.269531 -0.37109,-4.140625 l 0,-12.128906 q 0,-2.988282 0.37109,-4.238282 0.39063,-1.25 1.75782,-2.1875 1.36718,-0.957031 3.26172,-0.957031 1.46484,0 2.67578,0.527344 1.23047,0.527344 2.22656,1.582031 l 0,-7.34375 7.89062,0 z m -7.89062,12.226563 q 0,-1.425782 -0.25391,-1.914063 -0.23437,-0.488281 -0.95703,-0.488281 -0.70312,0 -0.95703,0.449219 -0.23437,0.429687 -0.23437,1.953125 l 0,12.695312 q 0,1.582031 0.23437,2.089844 0.23438,0.488281 0.89844,0.488281 0.76172,0 1.01562,-0.546875 0.25391,-0.566406 0.25391,-2.734375 l 0,-11.992187 z"
       style="font-style:normal;font-variant:normal;font-weight:normal;font-stretch:condensed;font-family:Impact;-inkscape-font-specification:'Impact Condensed'"
       id="path3494"
       inkscape:connector-curvature="0" /><path
       d="m 237.1957,55.680412 0,6.445313 -5.95703,0 0,-6.445313 5.95703,0 z"
       style="font-style:normal;font-variant:normal;font-weight:normal;font-stretch:condensed;font-family:Impact;-inkscape-font-specification:'Impact Condensed'"
       id="path3496"
       inkscape:connector-curvature="0" /></g></svg>