<?xml version="1.0" encoding="UTF-8" standalone="no"?>
<!-- Generator: Adobe Illustrator 16.0.0, SVG Export Plug-In . SVG Version: 6.00 Build 0)  -->

<svg
   xmlns:dc="http://purl.org/dc/elements/1.1/"
   xmlns:cc="http://creativecommons.org/ns#"
   xmlns:rdf="http://www.w3.org/1999/02/22-rdf-syntax-ns#"
   xmlns:svg="http://www.w3.org/2000/svg"
   xmlns="http://www.w3.org/2000/svg"
   xmlns:sodipodi="http://sodipodi.sourceforge.net/DTD/sodipodi-0.dtd"
   xmlns:inkscape="http://www.inkscape.org/namespaces/inkscape"
   version="1.1"
   id="Capa_1"
   x="0px"
   y="0px"
   width="417.88025"
   height="81.199539"
   viewBox="0 0 417.88025 81.199539"
   xml:space="preserve"
   inkscape:version="0.48.5 r10040"
   sodipodi:docname="mapomat_title.svg"><metadata
   id="metadata3067"><rdf:RDF><cc:Work
       rdf:about=""><dc:format>image/svg+xml</dc:format><dc:type
         rdf:resource="http://purl.org/dc/dcmitype/StillImage" /><dc:title /></cc:Work></rdf:RDF></metadata><defs
   id="defs3065" /><sodipodi:namedview
   pagecolor="#ffffff"
   bordercolor="#666666"
   borderopacity="1"
   objecttolerance="10"
   gridtolerance="10"
   guidetolerance="10"
   inkscape:pageopacity="0"
   inkscape:pageshadow="2"
   inkscape:window-width="1827"
   inkscape:window-height="1051"
   id="namedview3063"
   showgrid="false"
   inkscape:zoom="3.3553849"
   inkscape:cx="227.58062"
   inkscape:cy="28.028403"
   inkscape:window-x="84"
   inkscape:window-y="-9"
   inkscape:window-maximized="1"
   inkscape:current-layer="Capa_1"
   showguides="true"
   inkscape:guide-bbox="true"
   fit-margin-top="0"
   fit-margin-left="0"
   fit-margin-right="0"
   fit-margin-bottom="0"><sodipodi:guide
     orientation="0,1"
     position="49.767809,6.635331"
     id="guide3053" /><sodipodi:guide
     orientation="1,0"
     position="207.42483,74.287779"
     id="guide3055" /><sodipodi:guide
     orientation="1,0"
     position="176.13185,97.235967"
     id="guide3057" /><sodipodi:guide
     orientation="1,0"
     position="238.41979,73.393694"
     id="guide3059" /><sodipodi:guide
     orientation="1,0"
     position="169.57523,35.842115"
     id="guide3061" /></sodipodi:namedview>
<g
   id="g3028"
   transform="matrix(0.49940829,0,0,0.49940829,176.02653,-0.56682841)">
	<g
   id="g3030">
		<path
   id="path3378"
   d="m 109.605,63.449 c -5.729,0 -10.388,-4.652 -10.388,-10.385 0,-5.737 4.658,-10.384 10.388,-10.384 5.739,0 10.384,4.647 10.384,10.384 0,5.733 -4.645,10.385 -10.384,10.385 z m 0,25.966 c -5.729,0 -10.388,-4.648 -10.388,-10.388 0,-5.737 4.658,-10.386 10.388,-10.386 5.739,0 10.384,4.648 10.384,10.386 0,5.736 -4.645,10.388 -10.384,10.388 z M 94.436,104.99 c 0,5.737 -5.055,11.207 -10.799,11.207 H 21.316 c -5.724,0 -9.871,-5.47 -9.871,-11.207 V 53.06 c 0,-5.732 4.147,-11.271 9.871,-11.271 h 62.317 c 5.743,0 10.803,5.539 10.803,11.271 v 51.93 l 0,0 z M 114.792,33.206 H 76.304 c -3.159,0 -4.083,-2.429 -2.056,-4.856 L 84.367,15.984 c 2.025,-2.429 3.846,-4.468 4.061,-4.417 0.127,0.038 0.255,0.004 0.403,0.004 2.872,0 5.194,-2.347 5.194,-5.223 0,-2.861 -2.322,-5.204 -5.194,-5.204 -2.862,0 -5.194,2.324 -5.194,5.186 0,0.308 0.037,0.604 0.101,0.892 0.105,0.488 -1.378,2.828 -3.403,5.255 L 67.488,27.89 c -2.021,2.429 -4.091,4.396 -4.617,4.396 -0.526,0 -2.588,-1.966 -4.613,-4.398 L 45.416,12.482 C 43.39,10.05 41.893,7.706 41.996,7.217 c 0.061,-0.29 0.096,-0.586 0.096,-0.893 0,-2.86 -2.321,-5.189 -5.195,-5.189 -2.86,0 -5.194,2.329 -5.194,5.189 0,2.875 2.333,5.195 5.194,5.195 0.151,0 0.283,-0.027 0.412,-0.061 0.221,-0.051 2.043,1.871 4.069,4.302 l 10.111,12.595 c 2.023,2.429 1.101,4.856 -2.058,4.856 H 10.934 C 5.207,33.208 0,36.941 0,42.675 v 72.702 c 0,5.744 5.207,9.405 10.934,9.405 h 103.863 c 5.738,0 11.12,-3.664 11.12,-9.405 V 42.672 c -0.002,-5.734 -5.381,-9.466 -11.125,-9.466"
   inkscape:connector-curvature="0" />
	</g>
</g>
<g
   id="g3033"
   transform="translate(107.58532,-39.133621)">
</g>
<g
   id="g3035"
   transform="translate(107.58532,-39.133621)">
</g>
<g
   id="g3037"
   transform="translate(107.58532,-39.133621)">
</g>
<g
   id="g3039"
   transform="translate(107.58532,-39.133621)">
</g>
<g
   id="g3041"
   transform="translate(107.58532,-39.133621)">
</g>
<g
   id="g3043"
   transform="translate(107.58532,-39.133621)">
</g>
<g
   id="g3045"
   transform="translate(107.58532,-39.133621)">
</g>
<g
   id="g3047"
   transform="translate(107.58532,-39.133621)">
</g>
<g
   id="g3049"
   transform="translate(107.58532,-39.133621)">
</g>
<g
   id="g3051"
   transform="translate(107.58532,-39.133621)">
</g>
<g
   id="g3053"
   transform="translate(107.58532,-39.133621)">
</g>
<g
   id="g3055"
   transform="translate(107.58532,-39.133621)">
</g>
<g
   id="g3057"
   transform="translate(107.58532,-39.133621)">
</g>
<g
   id="g3059"
   transform="translate(107.58532,-39.133621)">
</g>
<g
   id="g3061"
   transform="translate(107.58532,-39.133621)">
</g>
<g
   id="g3110"
   transform="matrix(0.06892197,0,0,0.06915394,185.6893,22.470478)"><g
     id="g3070">
	<path
   id="path3072"
   d="M 484.681,213.47 C 480.183,172.591 465.14,135.244 440.812,101.97 401.618,48.392 349.201,15.634 283.745,4.23 270.694,1.959 257.347,1.368 244.137,0 243.259,0 242.387,0 241.515,0 229.173,1.351 216.778,2.246 204.522,4.129 78.665,23.442 -12.331,142.612 2.056,269.395 8.921,329.91 34.27,381.516 79.271,422.673 c 53.504,48.941 117.062,69.925 189.118,63.079 55.301,-5.271 103.557,-27.573 143.33,-66.489 57.76,-56.561 81.781,-125.699 72.962,-205.793 z M 433.4,338.072 c -6.153,-10.729 -13.92,-25.688 -17.39,-38.455 -5.042,-18.537 -17.147,-0.627 -18.158,11.479 -1.011,12.106 -9.078,21.184 -25.221,3.025 -16.143,-18.157 -19.169,-14.126 -24.211,-14.126 -5.042,0 -14.121,12.104 -12.105,68.601 1.437,40.335 17.349,46.736 27.746,49.662 -19.305,13.264 -41.488,23.714 -66.385,30.038 C 202.519,472.447 105.387,428.59 60.005,341.459 17.725,260.274 38.324,168.406 81.304,117.843 c 1.156,9.094 2.288,17.263 3.23,25.464 2.562,22.39 0.629,44.487 -3.939,66.496 -0.976,4.69 -0.636,10.033 0.629,14.646 0.688,2.519 4.486,5.494 7.11,5.743 2.066,0.201 5.671,-3.074 6.508,-5.533 1.513,-4.397 1.575,-9.327 2.04,-14.053 0.334,-3.334 0.34,-6.712 0.57,-11.942 3.413,2.766 5.902,4.444 7.971,6.525 5.272,5.308 10.604,10.592 15.415,16.299 2.125,2.533 4.315,6.079 4.256,9.129 -0.133,6.525 2.73,10.962 6.227,16.086 3.886,5.698 5.636,12.862 8.136,19.459 1.046,2.766 1.265,5.887 2.512,8.547 2.663,5.697 6.688,9.599 13.607,10.024 7.279,0.461 10.004,3.286 11.05,10.733 -1.862,0.213 -3.715,0.462 -5.574,0.633 -8.878,0.846 -13.278,4.924 -12.927,13.879 0.694,17.785 7.11,33.324 20.312,45.678 3.638,3.411 7.503,6.579 11.038,10.072 8.074,7.974 10.891,17.342 7.01,28.354 -1.859,5.249 -4.407,10.403 -5.231,15.83 -0.839,5.514 -0.845,11.508 0.432,16.904 1.324,5.615 0.756,17.897 6.555,16.881 10.258,-1.803 16.154,0.219 16.952,-11.266 0.151,-2.188 -0.018,-2.459 -0.6,-4.48 -3.05,-10.781 10.799,-41.387 19.109,-46.967 7.099,-4.776 14.218,-9.635 20.652,-15.244 9.276,-8.062 13.429,-18.477 9.531,-30.605 -3.668,-11.414 0.623,-19.795 8.603,-27.143 8.14,-7.489 13.477,-16.119 12.921,-27.645 -0.556,-11.526 -8.098,-19.849 -17.927,-18.666 -4.806,0.567 -9.413,2.872 -14.098,4.45 -6.868,2.323 -13.571,5.574 -20.62,6.839 -9.88,1.75 -15.968,-4.705 -20.375,-12.543 -3.546,-6.301 -4.714,-6.785 -10.87,-2.86 -5.193,3.322 -10.376,6.667 -15.755,9.67 -5.588,3.121 -8.633,1.963 -12.941,-2.707 -2.548,-2.755 -6.076,-4.693 -9.351,-6.679 -2.355,-1.442 -5.539,-1.839 -7.427,-3.647 -2.53,-2.447 -6.059,-6.076 -5.701,-8.729 0.417,-3.115 4.025,-7.014 7.172,-8.29 5.423,-2.199 11.585,-2.554 17.401,-3.818 3.097,-0.674 6.239,-1.375 9.167,-2.53 4.008,-1.599 3.839,-4.232 0.771,-6.703 -1.513,-1.215 -3.384,-2.069 -5.208,-2.802 -8.866,-3.57 -17.782,-6.984 -26.643,-10.568 -2.202,-0.884 -4.371,-1.971 -6.348,-3.263 -5.571,-3.661 -6.242,-7.692 -1.188,-12.152 19.955,-17.602 43.264,-22.756 63.916,0.63 6.398,7.243 10.737,16.275 16.778,23.876 4.752,5.994 10.223,11.621 16.263,16.246 2.489,1.9 8.086,2.223 10.87,0.697 4.146,-2.27 4.291,-7.444 2.205,-11.759 -1.803,-3.748 -3.922,-7.442 -6.469,-10.722 -11.733,-15.117 -10.926,-44.576 12.055,-56.867 7.687,-4.117 15.441,-8.453 19.112,-19.497 -4.403,1.191 -7.596,1.959 -10.723,2.917 -17.451,5.405 -5.302,-7.613 2.726,-9.883 4.876,-1.386 -4.362,-5.122 -4.362,-5.122 0.219,-0.381 6.135,-2.069 12.714,-4.874 4.527,-1.924 9.155,-4.09 12.915,-7.152 2.436,-1.998 3.375,-5.816 4.977,-8.819 -0.407,-0.473 -0.804,-0.934 -1.217,-1.407 -4.611,0.621 -9.216,1.303 -13.838,1.824 -7.832,0.877 -9.67,-0.659 -10.396,-8.559 -0.503,-5.394 -6,-8.334 -11.133,-5.568 -3.473,1.883 -6.476,4.613 -9.818,6.773 -7.716,4.998 -13.485,3 -16.512,-5.618 -1.803,-5.13 -4.314,-6.1 -9.034,-3.227 -2.374,1.442 -4.354,3.549 -6.768,4.897 -3.958,2.211 -7.982,4.43 -12.232,5.932 -4.14,1.466 -9.126,2.53 -11.943,-2.01 -3.026,-4.882 -0.381,-9.635 3.435,-12.696 4.743,-3.807 10.211,-6.762 15.548,-9.753 7.602,-4.279 15.652,-7.838 22.993,-12.504 5.388,-3.438 7.743,-9.041 6,-15.652 -1.472,-5.58 -5.205,-7.468 -10.374,-4.909 -4.268,2.119 -7.997,5.435 -12.386,7.143 -3.207,1.229 -7.203,1.242 -10.646,0.636 -1.271,-0.225 -2.622,-3.747 -2.657,-5.792 -0.024,-1.179 2.367,-3.227 3.892,-3.476 10.604,-1.652 21.255,-3.05 31.921,-4.265 1.41,-0.154 3.529,0.718 4.413,1.844 7.045,8.893 16.875,13.208 27.216,16.287 8.688,2.58 9.947,1.351 11.142,-7.764 11.159,-2.627 22.502,-7.803 33.732,-0.721 6.23,3.921 11.91,8.917 17.183,14.091 1.307,1.288 0.509,5.272 -0.118,7.838 -0.827,3.448 -2.736,6.635 -3.617,10.083 -1.702,6.682 2.618,11.904 9.522,11.795 2.181,-0.047 4.356,-0.494 6.549,-0.603 6.378,-0.298 8.642,2.143 8.057,8.583 -0.828,9.126 0.691,10.223 9.9,8.665 2.647,-0.446 5.704,0.756 8.405,1.703 1.607,0.567 2.854,2.107 4.285,3.188 8.564,6.49 15.113,4.058 17.62,-6.561 0.271,-1.156 0.236,-2.391 0.473,-3.559 0.993,-4.764 3.683,-5.99 6.897,-2.604 6.81,7.211 13.199,14.824 20.108,22.686 -7.424,6.809 -7.672,15.084 -6.028,23.193 1.826,9.021 -0.55,16.858 -4.108,24.805 -3.41,7.613 -7.157,15.179 -9.434,23.144 -3.404,11.955 0.461,17.416 12.602,20.062 11.585,2.529 13.482,4.858 13.92,16.184 0.585,15.448 8.518,26.11 22.071,32.914 3.009,1.501 6.206,2.642 9.279,3.919 -1.519,23.814 -8.317,48.598 -19.949,72.111 z"
   inkscape:connector-curvature="0" />
</g><g
     id="g3074">
</g><g
     id="g3076">
</g><g
     id="g3078">
</g><g
     id="g3080">
</g><g
     id="g3082">
</g><g
     id="g3084">
</g><g
     id="g3086">
</g><g
     id="g3088">
</g><g
     id="g3090">
</g><g
     id="g3092">
</g><g
     id="g3094">
</g><g
     id="g3096">
</g><g
     id="g3098">
</g><g
     id="g3100">
</g><g
     id="g3102">
</g></g><path
   inkscape:connector-curvature="0"
   d="m 222.97229,74.553423 h -5.55868 v -6.724871 c 2.58318,-1.603293 4.71493,-3.790579 6.16954,-6.368387 h -16.15832 v -0.0071 h -16.20132 c 1.45819,2.576017 3.58815,4.765093 6.16954,6.364803 v 6.728455 h -5.55868 c -1.83259,0 -3.32123,1.486853 -3.32123,3.321234 0,1.834382 1.48864,3.321235 3.32123,3.321235 h 7.52383 c 1.83438,0 3.32124,-1.488644 3.32124,-3.321235 0,-0.08419 -0.007,-0.170181 -0.0125,-0.254377 0.007,-0.08778 0.0125,-0.18093 0.0125,-0.266917 v -7.278411 c 1.49939,0.385148 3.07581,0.601907 4.70239,0.618029 v 0.01075 c 1.64271,-0.01433 3.23346,-0.229298 4.7436,-0.61982 v 7.27662 c 0,0.09315 0.004,0.182721 0.0143,0.268708 -0.007,0.08419 -0.0143,0.16839 -0.0143,0.256168 0,1.832591 1.48685,3.321235 3.32123,3.321235 h 7.52383 c 1.83259,0 3.32124,-1.488644 3.32124,-3.321235 0.002,-1.834381 -1.48327,-3.324817 -3.31944,-3.324817 z"
   id="path7" /><flowRoot
   xml:space="preserve"
   id="flowRoot3018"
   style="font-size:40px;font-style:normal;font-variant:normal;font-weight:300;font-stretch:normal;line-height:125%;letter-spacing:0px;word-spacing:0px;fill:#000000;fill-opacity:1;stroke:none;font-family:DINPro-Light;-inkscape-font-specification:DINPro-Light Light"
   transform="translate(107.58532,-3.216621)"><flowRegion
     id="flowRegion3020"><rect
       id="rect3022"
       width="51.11187"
       height="44.257217"
       x="3.2783124"
       y="19.516283" /></flowRegion><flowPara
     id="flowPara3024">MAP</flowPara></flowRoot><text
   xml:space="preserve"
   style="font-size:40px;font-style:normal;font-variant:normal;font-weight:300;font-stretch:normal;line-height:125%;letter-spacing:0px;word-spacing:0px;fill:#000000;fill-opacity:1;stroke:none;font-family:DINPro-Light;-inkscape-font-specification:DINPro-Light Light"
   x="-3.2812502"
   y="74.564217"
   id="text3026"
   sodipodi:linespacing="125%"><tspan
     sodipodi:role="line"
     id="tspan3028"
     x="-3.2812502"
     y="74.564217"
     style="font-size:80px;font-style:oblique;font-variant:normal;font-weight:normal;font-stretch:normal;font-family:Impact;-inkscape-font-specification:Impact Oblique">MAP-</tspan></text>

<text
   xml:space="preserve"
   style="font-size:40px;font-style:normal;font-variant:normal;font-weight:300;font-stretch:normal;line-height:125%;letter-spacing:0px;word-spacing:0px;fill:#000000;fill-opacity:1;stroke:none;font-family:DINPro-Light;-inkscape-font-specification:DINPro-Light Light"
   x="238.41978"
   y="74.564209"
   id="text3026-1"
   sodipodi:linespacing="125%"><tspan
     sodipodi:role="line"
     id="tspan3028-7"
     x="238.41978"
     y="74.564209"
     style="font-size:80px;font-style:oblique;font-variant:normal;font-weight:normal;font-stretch:normal;font-family:Impact;-inkscape-font-specification:Impact Oblique">-MAT</tspan></text>

</svg>